<?xml version="1.0" encoding="utf-8"?>
<!-- Generator: Fusion 360, Shaper Origin Export Add-In, Version 1.5.0  -->
<svg enable-background="new 0 0 2.5980762 2.25" height="2.25cm" shaper:fusionaddin="version:1.5.0" version="1.1" viewBox="0 0 2.5980762 2.25" width="2.5980762cm" x="0cm" xml:space="preserve" xmlns="http://www.w3.org/2000/svg" xmlns:shaper="http://www.shapertools.com/namespaces/shaper" xmlns:xlink="http://www.w3.org/1999/xlink" y="0cm"><path d="M0.25,-0.9330127 L0,-0.5 -0.25,-0.9330127 0,-1.5 0.25,-0.9330127z" fill="rgb(0,0,0)" shaper:cutDepth="0" shaper:pathType="exterior" transform="matrix(1,0,0,-1,1.2990381,0.75)" vector-effect="non-scaling-stroke" /><path d="M-0.4330127,0.25 A0.5,0.5 150 0,1 -0,-0.5 A0.5,0.5 270 0,1 0.4330127,0.25 A0.5,0.5 30 0,1 -0.4330127,0.25z" fill="rgb(0,0,0)" shaper:cutDepth="0" shaper:pathType="exterior" transform="matrix(1,0,0,-1,1.2990381,0.75)" vector-effect="non-scaling-stroke" /><path d="M-1.2990381,0.75 L-0.6830127,0.6830127 -0.4330127,0.25 -0.9330127,0.25 -1.2990381,0.75z" fill="rgb(0,0,0)" shaper:cutDepth="0" shaper:pathType="exterior" transform="matrix(1,0,0,-1,1.2990381,0.75)" vector-effect="non-scaling-stroke" /><path d="M0.6830127,0.6830127 L0.4330127,0.25 0.9330127,0.25 1.2990381,0.75 0.6830127,0.6830127z" fill="rgb(0,0,0)" shaper:cutDepth="0" shaper:pathType="exterior" transform="matrix(1,0,0,-1,1.2990381,0.75)" vector-effect="non-scaling-stroke" /><path d="M-0.4,0 a0.4,0.4 0 1,1 0.8,0 a0.4,0.4 0 1,1 -0.8,0z" fill="rgb(255,255,255)" shaper:cutDepth="0" shaper:pathType="interior" stroke="rgb(0,0,0)" transform="matrix(1,0,0,-1,1.2990381,0.75)" vector-effect="non-scaling-stroke" /></svg>